<svg width="333" height="644" viewBox="0 0 333 644" fill="none" xmlns="http://www.w3.org/2000/svg">
<g opacity="0.08" clip-path="url(#clip0_36_399)">
<path d="M213.844 69.4026C214.683 69.4032 215.497 69.686 216.156 70.2057C216.815 70.7253 217.28 71.4515 217.476 72.2673H266.793V101.153H-113.678V99.3897H265.03V74.0302H217.431C217.234 74.8453 216.769 75.5706 216.111 76.09C215.452 76.6094 214.639 76.8929 213.8 76.895C212.806 76.895 211.853 76.5003 211.151 75.7977C210.448 75.0952 210.054 74.1423 210.054 73.1488C210.054 72.6531 210.152 72.1623 210.343 71.7049C210.534 71.2475 210.814 70.8326 211.166 70.4841C211.519 70.1357 211.937 69.8606 212.397 69.675C212.856 69.4893 213.348 69.3968 213.844 69.4026Z" fill="#0FC8E6"/>
<path d="M253.66 83.8438C254.654 83.8438 255.606 84.2384 256.309 84.9409C257.012 85.6435 257.406 86.5964 257.406 87.5899C257.406 88.5835 257.012 89.5363 256.309 90.2389C255.606 90.9414 254.654 91.3361 253.66 91.3361C252.822 91.3351 252.009 91.0519 251.352 90.5322C250.694 90.0125 250.231 89.2865 250.037 88.4714H-113.678V86.7085H250.037C250.231 85.8934 250.694 85.1674 251.352 84.6476C252.009 84.1279 252.822 83.8447 253.66 83.8438Z" fill="#0FC8E6"/>
<path d="M198.295 73.1518L215.484 56.6069H286.696C286.894 55.7918 287.359 55.0665 288.017 54.5471C288.676 54.0277 289.489 53.7443 290.328 53.7422C291.321 53.7445 292.272 54.14 292.974 54.842C293.676 55.5441 294.072 56.4955 294.074 57.4884C294.074 58.4819 293.68 59.4348 292.977 60.1373C292.274 60.8399 291.322 61.2346 290.328 61.2346C289.489 61.234 288.675 60.9511 288.016 60.4315C287.357 59.9118 286.892 59.1857 286.696 58.3698H216.18L198.992 74.8971H-116.323V73.1342L198.295 73.1518Z" fill="#0FC8E6"/>
<path d="M238.779 123.598H323.857C324.054 122.783 324.519 122.058 325.177 121.538C325.836 121.019 326.65 120.735 327.488 120.733C328.482 120.733 329.435 121.128 330.137 121.831C330.84 122.533 331.234 123.486 331.234 124.479C331.234 125.473 330.84 126.426 330.137 127.128C329.435 127.831 328.482 128.226 327.488 128.226C326.649 128.225 325.835 127.942 325.176 127.423C324.517 126.903 324.052 126.177 323.857 125.361H238.153L219.448 110.376H-115.505V108.613H220.109L238.779 123.598Z" fill="#0FC8E6"/>
<path d="M241.639 138.077H277.99C278.183 137.261 278.646 136.534 279.303 136.014C279.961 135.494 280.775 135.212 281.613 135.212C282.607 135.212 283.56 135.607 284.262 136.309C284.965 137.012 285.359 137.965 285.359 138.958C285.359 139.952 284.965 140.905 284.262 141.607C283.56 142.31 282.607 142.705 281.613 142.705C280.775 142.704 279.962 142.42 279.305 141.901C278.648 141.381 278.185 140.655 277.99 139.84H241.031L215.539 119.646H-113.675V117.883H216.148L241.639 138.077Z" fill="#0FC8E6"/>
<path d="M67.937 53.7593H160.349C160.546 52.9442 161.011 52.2189 161.67 51.6995C162.328 51.1801 163.142 50.8966 163.98 50.8945C164.974 50.8945 165.927 51.2892 166.629 51.9917C167.332 52.6943 167.727 53.6472 167.727 54.6407C167.727 55.6343 167.332 56.5871 166.629 57.2897C165.927 57.9922 164.974 58.3869 163.98 58.3869C163.141 58.3863 162.327 58.1035 161.668 57.5838C161.009 57.0642 160.545 56.338 160.349 55.5222H68.4659L50.2109 67.5276H-113.74V65.7647H49.7173L67.937 53.7593Z" fill="#15DDEC"/>
<path d="M25.9529 54.5258C26.2961 54.0212 26.7573 53.608 27.2965 53.3223C27.8357 53.0365 28.4365 52.8869 29.0468 52.8863C30.0403 52.8863 30.9932 53.2809 31.6957 53.9835C32.3983 54.686 32.793 55.6389 32.793 56.6325C32.793 57.626 32.3983 58.5789 31.6957 59.2814C30.9932 59.984 30.0403 60.3787 29.0468 60.3787C28.0532 60.3787 27.1004 59.984 26.3978 59.2814C25.6953 58.5789 25.3006 57.626 25.3006 56.6325C25.3065 56.479 25.3213 56.3259 25.3447 56.1741L-1.45155 46.0285H-113.678V44.2656H-1.12541L25.9529 54.5258Z" fill="#15DDEC"/>
<path d="M34.1243 44.2643H117.157C117.355 43.4492 117.82 42.7239 118.478 42.2045C119.137 41.6851 119.95 41.4017 120.789 41.3996C121.783 41.3996 122.735 41.7943 123.438 42.4968C124.14 43.1993 124.535 44.1522 124.535 45.1457C124.535 46.1393 124.14 47.0921 123.438 47.7947C122.735 48.4972 121.783 48.8919 120.789 48.8919C119.95 48.8898 119.137 48.6064 118.478 48.087C117.82 47.5676 117.355 46.8423 117.157 46.0272H33.807L4.27822 35.009H-113.678V33.2461H4.59554L34.1243 44.2643Z" fill="#15DDEC"/>
<path d="M33.0847 4.6003H-44.3775C-44.5749 5.41538 -45.04 6.14068 -45.6984 6.66007C-46.3568 7.17947 -47.1705 7.46292 -48.0091 7.46503C-49.0027 7.46503 -49.9556 7.07033 -50.6581 6.36778C-51.3606 5.66523 -51.7553 4.71239 -51.7553 3.71884C-51.7553 2.72529 -51.3606 1.77245 -50.6581 1.0699C-49.9556 0.367356 -49.0027 -0.0273438 -48.0091 -0.0273438C-47.1705 -0.0252361 -46.3568 0.258214 -45.6984 0.777608C-45.04 1.297 -44.5749 2.0223 -44.3775 2.83739H34.8477V21.7887H-113.678V20.0258H33.0847V4.6003Z" fill="#15DDEC"/>
<path d="M4.33316 11.4585C4.53048 10.6434 4.99559 9.91804 5.65403 9.39865C6.31246 8.87925 7.12612 8.59586 7.96475 8.59375C8.9583 8.59375 9.91115 8.9884 10.6137 9.69094C11.3162 10.3935 11.7109 11.3464 11.7109 12.3399C11.7109 13.3335 11.3162 14.2863 10.6137 14.9889C9.91115 15.6914 8.9583 16.0861 7.96475 16.0861C7.12612 16.084 6.31246 15.8006 5.65403 15.2812C4.99559 14.7618 4.53048 14.0365 4.33316 13.2214H-113.676V11.4585H4.33316Z" fill="#15DDEC"/>
<path d="M195.129 24.0898C196.122 24.0922 197.073 24.4876 197.775 25.1897C198.477 25.8917 198.873 26.8432 198.875 27.836C198.875 28.8296 198.48 29.7824 197.778 30.485C197.075 31.1875 196.122 31.5822 195.129 31.5822C194.29 31.5817 193.475 31.2988 192.817 30.7791C192.158 30.2595 191.693 29.5333 191.497 28.7175H-113.68V26.9546H191.497C191.695 26.1395 192.16 25.4142 192.818 24.8948C193.477 24.3754 194.29 24.092 195.129 24.0898Z" fill="#15DDEC"/>
<path d="M232.886 147.801L209.756 129.767H81.4075V144.752H201.823C202.02 143.936 202.485 143.211 203.144 142.692C203.802 142.172 204.616 141.889 205.455 141.887C206.448 141.887 207.401 142.282 208.104 142.984C208.806 143.687 209.201 144.639 209.201 145.633C209.201 146.627 208.806 147.579 208.104 148.282C207.401 148.984 206.448 149.379 205.455 149.379C204.616 149.377 203.802 149.094 203.144 148.574C202.485 148.055 202.02 147.33 201.823 146.514H79.6446V128.004H210.4L234.648 146.964V158.3H-113.676V156.537H232.886V147.801Z" fill="#11BFE1"/>
<path d="M254.126 151.38H301.821C302.019 150.565 302.484 149.84 303.142 149.321C303.801 148.801 304.614 148.518 305.453 148.516C306.447 148.516 307.399 148.91 308.102 149.613C308.805 150.315 309.199 151.268 309.199 152.262C309.199 153.255 308.805 154.208 308.102 154.911C307.399 155.613 306.447 156.008 305.453 156.008C304.614 156.007 303.8 155.725 303.141 155.205C302.482 154.685 302.017 153.959 301.821 153.143H254.831L241.68 165.484H-113.679V163.721H240.983L254.126 151.38Z" fill="#11BFE1"/>
<path d="M271.957 167.027C272.95 167.027 273.903 167.422 274.606 168.125C275.308 168.827 275.703 169.78 275.703 170.774C275.703 171.767 275.308 172.72 274.606 173.422C273.903 174.125 272.95 174.52 271.957 174.52C271.118 174.519 270.303 174.236 269.645 173.717C268.986 173.197 268.521 172.471 268.325 171.655H-113.68V169.892H268.325C268.523 169.077 268.988 168.352 269.646 167.832C270.305 167.313 271.118 167.029 271.957 167.027Z" fill="#11BFE1"/>
<path d="M46.3488 129.123C46.5461 128.307 47.0112 127.582 47.6697 127.063C48.3281 126.543 49.1417 126.26 49.9804 126.258C50.9739 126.258 51.9268 126.652 52.6293 127.355C53.3319 128.058 53.7266 129.01 53.7266 130.004C53.7266 130.998 53.3319 131.95 52.6293 132.653C51.9268 133.355 50.9739 133.75 49.9804 133.75C49.1413 133.75 48.3269 133.467 47.6682 132.947C47.0094 132.427 46.5447 131.701 46.3488 130.885H-113.679V129.123H46.3488Z" fill="#11BFE1"/>
<path d="M-27.2605 147.633H21.6691C21.8664 146.818 22.3315 146.093 22.99 145.573C23.6484 145.054 24.4621 144.771 25.3007 144.768C26.2942 144.768 27.2471 145.163 27.9497 145.866C28.6522 146.568 29.0469 147.521 29.0469 148.515C29.0469 149.508 28.6522 150.461 27.9497 151.164C27.2471 151.866 26.2942 152.261 25.3007 152.261C24.4617 152.26 23.6472 151.977 22.9885 151.458C22.3297 150.938 21.865 150.212 21.6691 149.396H-27.6219L-50.099 139.841H-113.678V138.078H-49.7376L-27.2605 147.633Z" fill="#11BFE1"/>
<path d="M43.2542 194.997H169.161C169.359 194.182 169.824 193.457 170.482 192.937C171.141 192.418 171.954 192.134 172.793 192.132C173.786 192.132 174.739 192.527 175.442 193.23C176.144 193.932 176.539 194.885 176.539 195.878C176.539 196.872 176.144 197.825 175.442 198.527C174.739 199.23 173.786 199.625 172.793 199.625C171.954 199.623 171.141 199.339 170.482 198.82C169.824 198.3 169.359 197.575 169.161 196.76H42.6019L21.2266 178.54H-113.68V176.777H21.8789L43.2542 194.997Z" fill="#11BFE1"/>
<path d="M15.6055 200.53H-52.531C-52.7283 201.345 -53.1934 202.07 -53.8519 202.59C-54.5103 203.109 -55.324 203.393 -56.1626 203.395C-57.1562 203.395 -58.109 203 -58.8116 202.297C-59.5141 201.595 -59.9088 200.642 -59.9088 199.648C-59.9088 198.655 -59.5141 197.702 -58.8116 196.999C-58.109 196.297 -57.1562 195.902 -56.1626 195.902C-55.324 195.904 -54.5103 196.188 -53.8519 196.707C-53.1934 197.227 -52.7283 197.952 -52.531 198.767H13.8426V183.853H-113.678V182.09H15.6055V200.53Z" fill="#11BFE1"/>
<path d="M-113.678 271.681H250.037C250.23 270.865 250.693 270.138 251.35 269.618C252.008 269.098 252.822 268.816 253.66 268.816C254.653 268.816 255.606 269.211 256.309 269.914C257.011 270.616 257.406 271.569 257.406 272.562C257.406 273.556 257.011 274.509 256.309 275.211C255.606 275.914 254.653 276.309 253.66 276.309C252.822 276.308 252.009 276.025 251.352 275.505C250.694 274.985 250.231 274.259 250.037 273.444H-113.678V271.681Z" fill="#15DDEC"/>
<path d="M265.03 259.905H217.431C217.234 260.72 216.769 261.445 216.111 261.965C215.452 262.484 214.639 262.768 213.8 262.77C212.806 262.77 211.853 262.375 211.151 261.672C210.448 260.97 210.054 260.017 210.054 259.024C210.054 258.03 210.448 257.077 211.151 256.375C211.853 255.672 212.806 255.277 213.8 255.277C214.639 255.279 215.452 255.563 216.111 256.082C216.769 256.602 217.234 257.327 217.431 258.142H266.793V287.027H-113.678V285.264H265.03V259.905Z" fill="#15DDEC"/>
<path d="M198.295 258.145L215.484 241.626H286.696C286.894 240.811 287.359 240.086 288.017 239.567C288.676 239.047 289.489 238.764 290.328 238.762C291.322 238.762 292.274 239.156 292.977 239.859C293.68 240.561 294.074 241.514 294.074 242.508C294.074 243.501 293.68 244.454 292.977 245.157C292.274 245.859 291.322 246.254 290.328 246.254C289.489 246.252 288.676 245.969 288.017 245.449C287.359 244.93 286.894 244.204 286.696 243.389H216.18L198.992 259.908H-116.323V258.145H198.295Z" fill="#15DDEC"/>
<path d="M221.875 294.512L240.544 309.496H325.622C325.82 308.681 326.285 307.956 326.943 307.437C327.602 306.917 328.415 306.634 329.254 306.632C330.247 306.632 331.2 307.026 331.903 307.729C332.605 308.431 333 309.384 333 310.378C333 311.371 332.605 312.324 331.903 313.027C331.2 313.729 330.247 314.124 329.254 314.124C328.415 314.122 327.602 313.839 326.943 313.319C326.285 312.8 325.82 312.074 325.622 311.259H239.918L221.249 296.275H-113.704V294.512H221.875Z" fill="#15DDEC"/>
<path d="M216.148 302.004L241.639 322.189H277.99C278.185 321.374 278.648 320.648 279.305 320.128C279.962 319.609 280.775 319.325 281.613 319.324C282.607 319.324 283.56 319.719 284.262 320.422C284.965 321.124 285.359 322.077 285.359 323.071C285.359 324.064 284.965 325.017 284.262 325.72C283.56 326.422 282.607 326.817 281.613 326.817C280.775 326.816 279.962 326.533 279.305 326.013C278.648 325.493 278.185 324.767 277.99 323.952H241.031L215.539 303.767H-113.675V302.004H216.148Z" fill="#15DDEC"/>
<path d="M-113.68 354.009H268.325C268.523 353.194 268.988 352.469 269.646 351.949C270.305 351.43 271.118 351.147 271.957 351.145C272.95 351.145 273.903 351.539 274.606 352.242C275.308 352.944 275.703 353.897 275.703 354.891C275.703 355.884 275.308 356.837 274.606 357.54C273.903 358.242 272.95 358.637 271.957 358.637C271.118 358.635 270.305 358.351 269.646 357.832C268.988 357.313 268.523 356.587 268.325 355.772H-113.68V354.009Z" fill="#10C1E2"/>
<path d="M232.886 331.922L209.756 313.861H81.4075V328.845H201.823C202.019 328.029 202.484 327.303 203.142 326.784C203.801 326.264 204.616 325.981 205.455 325.981C206.448 325.981 207.401 326.375 208.104 327.078C208.806 327.78 209.201 328.733 209.201 329.727C209.198 330.72 208.803 331.671 208.101 332.373C207.399 333.075 206.447 333.471 205.455 333.473C204.616 333.471 203.802 333.187 203.144 332.668C202.485 332.149 202.02 331.423 201.823 330.608H79.6446V312.098H210.4L234.648 331.058V342.402H-113.676V340.639H232.886V331.922Z" fill="#15DDEC"/>
<path d="M254.126 335.501H301.821C302.019 334.686 302.484 333.961 303.142 333.442C303.801 332.922 304.614 332.639 305.453 332.637C306.447 332.637 307.399 333.031 308.102 333.734C308.805 334.437 309.199 335.389 309.199 336.383C309.199 337.376 308.805 338.329 308.102 339.032C307.399 339.734 306.447 340.129 305.453 340.129C304.614 340.127 303.801 339.844 303.142 339.324C302.484 338.805 302.019 338.079 301.821 337.264H254.831L241.68 349.605H-113.679V347.842H240.983L254.126 335.501Z" fill="#15DDEC"/>
<path d="M46.3488 313.244C46.5461 312.429 47.0112 311.703 47.6697 311.184C48.3281 310.664 49.1417 310.381 49.9804 310.379C50.9739 310.379 51.9268 310.774 52.6293 311.476C53.3319 312.179 53.7266 313.132 53.7266 314.125C53.7266 315.119 53.3319 316.072 52.6293 316.774C51.9268 317.477 50.9739 317.871 49.9804 317.871C49.1417 317.869 48.3281 317.586 47.6697 317.066C47.0112 316.547 46.5461 315.822 46.3488 315.007H-113.679V313.244H46.3488Z" fill="#15DDEC"/>
<path d="M-27.2605 331.751H21.6691C21.8664 330.936 22.3315 330.211 22.99 329.692C23.6484 329.172 24.4621 328.889 25.3007 328.887C26.2942 328.887 27.2471 329.281 27.9497 329.984C28.6522 330.686 29.0469 331.639 29.0469 332.633C29.0469 333.626 28.6522 334.579 27.9497 335.282C27.2471 335.984 26.2942 336.379 25.3007 336.379C24.4621 336.377 23.6484 336.093 22.99 335.574C22.3315 335.055 21.8664 334.329 21.6691 333.514H-27.6219L-50.099 323.95H-113.678V322.188H-49.7376L-27.2605 331.751Z" fill="#15DDEC"/>
<path d="M67.937 237.88H160.349C160.546 237.065 161.011 236.34 161.67 235.821C162.328 235.301 163.142 235.018 163.98 235.016C164.974 235.016 165.927 235.41 166.629 236.113C167.332 236.815 167.727 237.768 167.727 238.762C167.727 239.755 167.332 240.708 166.629 241.411C165.927 242.113 164.974 242.508 163.98 242.508C163.142 242.506 162.328 242.222 161.67 241.703C161.011 241.184 160.546 240.458 160.349 239.643H68.4659L50.2109 251.649H-113.74V249.886H49.7173L67.937 237.88Z" fill="#15DDEC"/>
<path d="M25.9529 238.635C26.2965 238.132 26.7581 237.72 27.2973 237.435C27.8366 237.151 28.4372 237.003 29.0468 237.004C30.0403 237.004 30.9932 237.399 31.6957 238.102C32.3983 238.804 32.793 239.757 32.793 240.751C32.793 241.744 32.3983 242.697 31.6957 243.4C30.9932 244.102 30.0403 244.497 29.0468 244.497C28.0532 244.497 27.1004 244.102 26.3978 243.4C25.6953 242.697 25.3006 241.744 25.3006 240.751C25.3061 240.597 25.3208 240.444 25.3447 240.292L-1.45155 230.173H-113.678V228.41H-1.12541L25.9529 238.635Z" fill="#15DDEC"/>
<path d="M34.1243 228.409H117.157C117.353 227.593 117.818 226.867 118.477 226.347C119.135 225.828 119.95 225.545 120.789 225.544C121.783 225.544 122.735 225.939 123.438 226.641C124.14 227.344 124.535 228.297 124.535 229.29C124.535 230.284 124.14 231.237 123.438 231.939C122.735 232.642 121.783 233.036 120.789 233.036C119.95 233.034 119.137 232.751 118.478 232.232C117.82 231.712 117.355 230.987 117.157 230.172H33.807L4.27822 219.154H-113.678V217.391H4.59554L34.1243 228.409Z" fill="#15DDEC"/>
<path d="M191.497 211.076C191.695 210.261 192.16 209.535 192.818 209.016C193.477 208.496 194.29 208.213 195.129 208.211C196.122 208.211 197.075 208.606 197.778 209.308C198.48 210.011 198.875 210.964 198.875 211.957C198.875 212.951 198.48 213.904 197.778 214.606C197.075 215.309 196.122 215.703 195.129 215.703C194.29 215.701 193.477 215.418 192.818 214.898C192.16 214.379 191.695 213.654 191.497 212.839H-113.68V211.076H191.497Z" fill="#15DDEC"/>
<path d="M21.8789 360.922L43.2542 379.142H169.161C169.357 378.326 169.822 377.6 170.481 377.08C171.139 376.56 171.954 376.277 172.793 376.277C173.786 376.277 174.739 376.672 175.442 377.374C176.144 378.077 176.539 379.029 176.539 380.023C176.539 381.017 176.144 381.969 175.442 382.672C174.739 383.375 173.786 383.769 172.793 383.769C171.954 383.767 171.141 383.484 170.482 382.964C169.824 382.445 169.359 381.72 169.161 380.904H42.6019L21.2266 362.685H-113.68V360.922H21.8789Z" fill="#10C1E2"/>
<path d="M15.6055 384.651H-52.531C-52.7283 385.466 -53.1934 386.191 -53.8519 386.711C-54.5103 387.23 -55.324 387.514 -56.1626 387.516C-57.1554 387.513 -58.1069 387.118 -58.809 386.416C-59.511 385.714 -59.9065 384.762 -59.9088 383.77C-59.9088 382.776 -59.5141 381.823 -58.8116 381.121C-58.109 380.418 -57.1562 380.023 -56.1626 380.023C-55.3236 380.024 -54.5091 380.307 -53.8504 380.826C-53.1916 381.346 -52.7269 382.072 -52.531 382.888H13.8426V367.974H-113.678V366.211H15.6055V384.651Z" fill="#10C1E2"/>
<path d="M240.983 439.615L254.126 427.275H301.821C302.019 426.46 302.484 425.735 303.142 425.215C303.801 424.696 304.614 424.412 305.453 424.41C306.447 424.41 307.399 424.805 308.102 425.507C308.805 426.21 309.199 427.163 309.199 428.156C309.199 429.15 308.805 430.103 308.102 430.805C307.399 431.508 306.447 431.903 305.453 431.903C304.614 431.902 303.8 431.619 303.141 431.099C302.482 430.58 302.017 429.854 301.821 429.038H254.831L241.68 441.378H-113.679V439.615H240.983Z" fill="#10C1E2"/>
<path d="M271.957 442.922C272.95 442.922 273.903 443.317 274.606 444.019C275.308 444.722 275.703 445.675 275.703 446.668C275.703 447.662 275.308 448.614 274.606 449.317C273.903 450.02 272.95 450.414 271.957 450.414C271.118 450.414 270.303 450.131 269.645 449.611C268.986 449.092 268.521 448.365 268.325 447.55H-113.68V445.787H268.325C268.523 444.972 268.988 444.246 269.646 443.727C270.305 443.207 271.118 442.924 271.957 442.922Z" fill="#10C1E2"/>
<path d="M216.148 393.781L241.639 413.975H277.99C278.183 413.16 278.646 412.433 279.303 411.913C279.961 411.393 280.775 411.11 281.613 411.111C282.607 411.111 283.56 411.505 284.262 412.208C284.965 412.91 285.359 413.863 285.359 414.857C285.359 415.85 284.965 416.803 284.262 417.506C283.56 418.208 282.607 418.603 281.613 418.603C280.775 418.602 279.962 418.319 279.305 417.799C278.648 417.279 278.185 416.553 277.99 415.738H241.031L215.539 395.544H-113.675V393.781H216.148Z" fill="#10C1E2"/>
<path d="M232.886 423.696L209.756 405.661H81.4075V420.646H201.823C202.02 419.831 202.485 419.106 203.144 418.586C203.802 418.067 204.616 417.783 205.455 417.781C206.448 417.781 207.401 418.176 208.104 418.879C208.806 419.581 209.201 420.534 209.201 421.528C209.201 422.521 208.806 423.474 208.104 424.177C207.401 424.879 206.448 425.274 205.455 425.274C204.616 425.272 203.802 424.988 203.144 424.469C202.485 423.949 202.02 423.224 201.823 422.409H79.6446V403.898H210.4L234.648 422.867V434.203H-113.676V432.44H232.886V423.696Z" fill="#10C1E2"/>
<path d="M49.9804 402.137C50.9739 402.137 51.9268 402.531 52.6293 403.234C53.3319 403.936 53.7266 404.889 53.7266 405.883C53.7266 406.876 53.3319 407.829 52.6293 408.532C51.9268 409.234 50.9739 409.629 49.9804 409.629C49.1413 409.629 48.3269 409.346 47.6682 408.826C47.0094 408.306 46.5447 407.58 46.3488 406.764H-113.679V405.001H46.3488C46.5461 404.186 47.0112 403.461 47.6697 402.942C48.3281 402.422 49.1417 402.139 49.9804 402.137Z" fill="#10C1E2"/>
<path d="M-27.2605 423.528H21.6691C21.8664 422.713 22.3315 421.987 22.99 421.468C23.6484 420.948 24.4621 420.665 25.3007 420.663C26.2942 420.663 27.2471 421.058 27.9497 421.76C28.6522 422.463 29.0469 423.416 29.0469 424.409C29.0469 425.403 28.6522 426.356 27.9497 427.058C27.2471 427.761 26.2942 428.155 25.3007 428.155C24.4617 428.155 23.6472 427.872 22.9885 427.352C22.3297 426.833 21.865 426.106 21.6691 425.291H-27.6219L-50.099 415.736H-113.678V413.973H-49.7376L-27.2605 423.528Z" fill="#10C1E2"/>
<path d="M21.8828 452.698L43.2581 470.892H169.165C169.363 470.076 169.828 469.351 170.486 468.832C171.144 468.312 171.958 468.029 172.797 468.027C173.79 468.027 174.743 468.422 175.446 469.124C176.148 469.827 176.543 470.779 176.543 471.773C176.543 472.767 176.148 473.719 175.446 474.422C174.743 475.125 173.79 475.519 172.797 475.519C171.958 475.517 171.144 475.234 170.486 474.714C169.828 474.195 169.363 473.47 169.165 472.654H42.6058L21.2305 454.435H-113.676V452.672L21.8828 452.698Z" fill="#10C1E2"/>
<path d="M15.6055 476.427H-52.531C-52.7283 477.242 -53.1934 477.968 -53.8519 478.487C-54.5103 479.006 -55.324 479.29 -56.1626 479.292C-57.1562 479.292 -58.109 478.897 -58.8116 478.195C-59.5141 477.492 -59.9088 476.539 -59.9088 475.546C-59.9088 474.552 -59.5141 473.599 -58.8116 472.897C-58.109 472.194 -57.1562 471.8 -56.1626 471.8C-55.324 471.802 -54.5103 472.085 -53.8519 472.605C-53.1934 473.124 -52.7283 473.849 -52.531 474.664H13.8426V459.759H-113.678V457.996H15.6055V476.427Z" fill="#10C1E2"/>
<path d="M265.03 561.159V535.8H217.431C217.234 536.615 216.769 537.34 216.111 537.859C215.452 538.379 214.639 538.662 213.8 538.664C212.806 538.664 211.853 538.27 211.151 537.567C210.448 536.864 210.054 535.912 210.054 534.918C210.054 533.924 210.448 532.972 211.151 532.269C211.853 531.567 212.806 531.172 213.8 531.172C214.639 531.174 215.452 531.457 216.111 531.977C216.769 532.496 217.234 533.222 217.431 534.037H266.793V562.922H-113.678V561.159H265.03Z" fill="#15DDEC"/>
<path d="M-113.678 547.576H250.037C250.23 546.76 250.693 546.033 251.35 545.513C252.008 544.993 252.822 544.71 253.66 544.711C254.654 544.711 255.606 545.106 256.309 545.808C257.012 546.511 257.406 547.464 257.406 548.457C257.406 549.451 257.012 550.404 256.309 551.106C255.606 551.809 254.654 552.203 253.66 552.203C252.822 552.202 252.009 551.919 251.352 551.399C250.694 550.88 250.231 550.154 250.037 549.339H-113.678V547.576Z" fill="#15DDEC"/>
<path d="M198.295 534.039L215.484 517.521H286.697C286.894 516.706 287.359 515.981 288.017 515.461C288.676 514.942 289.49 514.658 290.328 514.656C291.322 514.656 292.275 515.051 292.977 515.753C293.68 516.456 294.074 517.409 294.074 518.402C294.074 519.396 293.68 520.349 292.977 521.051C292.275 521.754 291.322 522.149 290.328 522.149C289.49 522.147 288.676 521.863 288.017 521.344C287.359 520.824 286.894 520.099 286.697 519.284H216.18L198.992 535.802H-116.322V534.039H198.295Z" fill="#15DDEC"/>
<path d="M49.7174 525.78L67.9371 513.775H160.349C160.546 512.96 161.011 512.234 161.67 511.715C162.328 511.196 163.142 510.912 163.98 510.91C164.974 510.91 165.927 511.305 166.629 512.007C167.332 512.71 167.727 513.663 167.727 514.656C167.727 515.65 167.332 516.603 166.629 517.305C165.927 518.008 164.974 518.402 163.98 518.402C163.142 518.4 162.328 518.117 161.67 517.597C161.011 517.078 160.546 516.353 160.349 515.538H68.466L50.2111 527.543H-113.74V525.78H49.7174Z" fill="#15DDEC"/>
<path d="M25.9529 514.53C26.2965 514.026 26.7581 513.614 27.2973 513.33C27.8366 513.046 28.4372 512.898 29.0468 512.899C30.0403 512.899 30.9932 513.294 31.6957 513.996C32.3983 514.699 32.793 515.652 32.793 516.645C32.793 517.639 32.3983 518.591 31.6957 519.294C30.9932 519.997 30.0403 520.391 29.0468 520.391C28.0532 520.391 27.1004 519.997 26.3978 519.294C25.6953 518.591 25.3006 517.639 25.3006 516.645C25.3061 516.492 25.3208 516.338 25.3447 516.187L-1.45155 506.068H-113.678V504.305H-1.12541L25.9529 514.53Z" fill="#15DDEC"/>
<path d="M4.59554 493.289L34.1243 504.307H117.157C117.353 503.491 117.818 502.765 118.477 502.246C119.135 501.726 119.95 501.443 120.789 501.443C121.783 501.443 122.735 501.837 123.438 502.54C124.14 503.242 124.535 504.195 124.535 505.189C124.535 506.182 124.14 507.135 123.438 507.838C122.735 508.54 121.783 508.935 120.789 508.935C119.95 508.933 119.137 508.649 118.478 508.13C117.82 507.611 117.355 506.885 117.157 506.07H33.807L4.27822 495.052H-113.678V493.289H4.59554Z" fill="#15DDEC"/>
<path d="M-113.68 486.97H191.497C191.695 486.155 192.16 485.43 192.818 484.91C193.477 484.391 194.29 484.108 195.129 484.105C196.122 484.105 197.075 484.5 197.778 485.203C198.48 485.905 198.875 486.858 198.875 487.852C198.875 488.845 198.48 489.798 197.778 490.501C197.075 491.203 196.122 491.598 195.129 491.598C194.29 491.596 193.477 491.312 192.818 490.793C192.16 490.274 191.695 489.548 191.497 488.733H-113.68V486.97Z" fill="#15DDEC"/>
<path d="M234.09 565.559L246.722 576.577H301.821C302.019 575.762 302.484 575.036 303.142 574.517C303.801 573.998 304.614 573.714 305.453 573.712C306.447 573.712 307.399 574.107 308.102 574.809C308.805 575.512 309.199 576.465 309.199 577.458C309.199 578.452 308.805 579.405 308.102 580.107C307.399 580.81 306.447 581.204 305.453 581.204C304.614 581.202 303.801 580.919 303.142 580.399C302.484 579.88 302.019 579.155 301.821 578.34H246.061L233.429 567.322H-113.679V565.559H234.09Z" fill="#15DDEC"/>
<path d="M50.211 576.473L68.4659 588.478H160.349C160.546 587.663 161.011 586.938 161.67 586.418C162.328 585.899 163.142 585.615 163.98 585.613C164.974 585.613 165.927 586.008 166.629 586.711C167.332 587.413 167.727 588.366 167.727 589.36C167.727 590.353 167.332 591.306 166.629 592.008C165.927 592.711 164.974 593.106 163.98 593.106C163.142 593.104 162.328 592.82 161.67 592.301C161.011 591.781 160.546 591.056 160.349 590.241H67.937L49.7173 578.236H-113.678V576.473H50.211Z" fill="#15DDEC"/>
<path d="M25.3447 587.826C25.3208 587.674 25.3061 587.521 25.3006 587.367C25.3006 586.374 25.6953 585.421 26.3978 584.718C27.1004 584.016 28.0532 583.621 29.0468 583.621C30.0403 583.621 30.9932 584.016 31.6957 584.718C32.3983 585.421 32.793 586.374 32.793 587.367C32.793 588.361 32.3983 589.314 31.6957 590.016C30.9932 590.719 30.0403 591.113 29.0468 591.113C28.4372 591.115 27.8366 590.967 27.2973 590.682C26.7581 590.398 26.2965 589.986 25.9529 589.483L-1.12541 599.708H-113.678V597.945H-1.45155L25.3447 587.826Z" fill="#15DDEC"/>
<path d="M34.8477 622.184V641.135H-44.3775C-44.5734 641.951 -45.0382 642.677 -45.6969 643.197C-46.3557 643.716 -47.1701 643.999 -48.0091 644C-49.0027 644 -49.9556 643.605 -50.6581 642.902C-51.3606 642.2 -51.7553 641.247 -51.7553 640.253C-51.753 639.261 -51.3576 638.309 -50.6555 637.607C-49.9535 636.905 -49.002 636.51 -48.0091 636.507C-47.1705 636.509 -46.3568 636.793 -45.6984 637.312C-45.04 637.832 -44.5749 638.557 -44.3775 639.372H33.0847V623.947H-113.678V622.184H34.8477Z" fill="#15DDEC"/>
<path d="M7.96475 627.914C8.9583 627.914 9.91115 628.309 10.6137 629.011C11.3162 629.714 11.7109 630.667 11.7109 631.66C11.7109 632.654 11.3162 633.607 10.6137 634.309C9.91115 635.012 8.9583 635.406 7.96475 635.406C7.12572 635.406 6.31127 635.123 5.65252 634.603C4.99377 634.084 4.52907 633.358 4.33316 632.542H-113.676V630.779H4.33316C4.53048 629.964 4.99559 629.238 5.65403 628.719C6.31246 628.2 7.12612 627.916 7.96475 627.914Z" fill="#15DDEC"/>
<path d="M4.27822 608.961L33.6571 598.005L33.807 597.943H117.157C117.355 597.128 117.82 596.402 118.478 595.883C119.137 595.364 119.95 595.08 120.789 595.078C121.783 595.078 122.735 595.473 123.438 596.175C124.14 596.878 124.535 597.831 124.535 598.824C124.535 599.818 124.14 600.771 123.438 601.473C122.735 602.176 121.783 602.57 120.789 602.57C119.95 602.57 119.135 602.287 118.477 601.767C117.818 601.248 117.353 600.522 117.157 599.706H34.1243L4.74539 610.671L4.59554 610.724H-113.678V608.961H4.27822Z" fill="#15DDEC"/>
<path d="M195.129 612.418C196.122 612.418 197.075 612.813 197.778 613.515C198.48 614.218 198.875 615.171 198.875 616.164C198.875 617.158 198.48 618.111 197.778 618.813C197.075 619.516 196.122 619.91 195.129 619.91C194.29 619.908 193.477 619.625 192.818 619.105C192.16 618.586 191.695 617.861 191.497 617.046H-113.68V615.283H191.497C191.695 614.468 192.16 613.742 192.818 613.223C193.477 612.704 194.29 612.42 195.129 612.418Z" fill="#15DDEC"/>
</g>
<defs>
<clipPath id="clip0_36_399">
<rect width="333" height="644" fill="white" transform="matrix(-1 0 0 1 333 0)"/>
</clipPath>
</defs>
</svg>
