<svg width="333" height="644" viewBox="0 0 333 644" fill="none" xmlns="http://www.w3.org/2000/svg">
<g opacity="0.08" clip-path="url(#clip0_36_280)">
<path d="M119.156 69.4026C118.317 69.4032 117.503 69.686 116.844 70.2057C116.185 70.7253 115.72 71.4515 115.524 72.2673H66.207V101.153H446.678V99.3897H67.9699V74.0302H115.569C115.766 74.8453 116.231 75.5706 116.889 76.09C117.548 76.6094 118.361 76.8929 119.2 76.895C120.194 76.895 121.147 76.5003 121.849 75.7977C122.552 75.0952 122.946 74.1423 122.946 73.1488C122.946 72.6531 122.848 72.1623 122.657 71.7049C122.466 71.2475 122.186 70.8326 121.834 70.4841C121.481 70.1357 121.063 69.8606 120.603 69.675C120.144 69.4893 119.652 69.3968 119.156 69.4026Z" fill="#0FC8E6"/>
<path d="M79.3399 83.8438C78.3464 83.8438 77.3935 84.2384 76.691 84.9409C75.9884 85.6435 75.5938 86.5964 75.5938 87.5899C75.5938 88.5835 75.9884 89.5363 76.691 90.2389C77.3935 90.9414 78.3464 91.3361 79.3399 91.3361C80.1779 91.3351 80.991 91.0519 81.6483 90.5322C82.3055 90.0125 82.7686 89.2865 82.9627 88.4714H446.678V86.7085H82.9627C82.7686 85.8934 82.3055 85.1674 81.6483 84.6476C80.991 84.1279 80.1779 83.8447 79.3399 83.8438Z" fill="#0FC8E6"/>
<path d="M134.705 73.1518L117.516 56.6069H46.3036C46.1062 55.7918 45.6411 55.0665 44.9827 54.5471C44.3243 54.0277 43.5106 53.7443 42.672 53.7422C41.6791 53.7445 40.7276 54.14 40.0256 54.842C39.3235 55.5441 38.9281 56.4955 38.9258 57.4884C38.9258 58.4819 39.3205 59.4348 40.023 60.1373C40.7256 60.8399 41.6784 61.2346 42.672 61.2346C43.511 61.234 44.3254 60.9511 44.9842 60.4315C45.6429 59.9118 46.1077 59.1857 46.3036 58.3698H116.82L134.008 74.8971H449.323V73.1342L134.705 73.1518Z" fill="#0FC8E6"/>
<path d="M94.2215 123.598H9.14341C8.94608 122.783 8.48097 122.058 7.82254 121.538C7.16411 121.019 6.35044 120.735 5.51181 120.733C4.51826 120.733 3.5654 121.128 2.86286 121.831C2.16031 122.533 1.76563 123.486 1.76562 124.479C1.76563 125.473 2.16031 126.426 2.86286 127.128C3.5654 127.831 4.51826 128.226 5.51181 128.226C6.35084 128.225 7.16528 127.942 7.82402 127.423C8.48277 126.903 8.9475 126.177 9.14341 125.361H94.8473L113.552 110.376H448.505V108.613H112.891L94.2215 123.598Z" fill="#0FC8E6"/>
<path d="M91.3608 138.077H55.0096C54.8169 137.261 54.3542 136.534 53.6967 136.014C53.0391 135.494 52.2251 135.212 51.3868 135.212C50.3933 135.212 49.4404 135.607 48.7379 136.309C48.0353 137.012 47.6406 137.965 47.6406 138.958C47.6406 139.952 48.0353 140.905 48.7379 141.607C49.4404 142.31 50.3933 142.705 51.3868 142.705C52.2247 142.704 53.0379 142.42 53.6952 141.901C54.3524 141.381 54.8155 140.655 55.0096 139.84H91.969L117.461 119.646H446.675V117.883H116.852L91.3608 138.077Z" fill="#0FC8E6"/>
<path d="M265.063 53.7593H172.651C172.454 52.9442 171.989 52.2189 171.33 51.6995C170.672 51.1801 169.858 50.8966 169.02 50.8945C168.026 50.8945 167.073 51.2892 166.371 51.9917C165.668 52.6943 165.273 53.6472 165.273 54.6407C165.273 55.6343 165.668 56.5871 166.371 57.2897C167.073 57.9922 168.026 58.3869 169.02 58.3869C169.859 58.3863 170.673 58.1035 171.332 57.5838C171.991 57.0642 172.455 56.338 172.651 55.5222H264.534L282.789 67.5276H446.74V65.7647H283.283L265.063 53.7593Z" fill="#15DDEC"/>
<path d="M307.047 54.5258C306.704 54.0212 306.243 53.608 305.704 53.3223C305.164 53.0365 304.563 52.8869 303.953 52.8863C302.96 52.8863 302.007 53.2809 301.304 53.9835C300.602 54.686 300.207 55.6389 300.207 56.6325C300.207 57.626 300.602 58.5789 301.304 59.2814C302.007 59.984 302.96 60.3787 303.953 60.3787C304.947 60.3787 305.9 59.984 306.602 59.2814C307.305 58.5789 307.699 57.626 307.699 56.6325C307.693 56.479 307.679 56.3259 307.655 56.1741L334.452 46.0285H446.678V44.2656H334.125L307.047 54.5258Z" fill="#15DDEC"/>
<path d="M298.876 44.2643H215.843C215.645 43.4492 215.18 42.7239 214.522 42.2045C213.863 41.6851 213.05 41.4017 212.211 41.3996C211.217 41.3996 210.265 41.7943 209.562 42.4968C208.86 43.1993 208.465 44.1522 208.465 45.1457C208.465 46.1393 208.86 47.0921 209.562 47.7947C210.265 48.4972 211.217 48.8919 212.211 48.8919C213.05 48.8898 213.863 48.6064 214.522 48.087C215.18 47.5676 215.645 46.8423 215.843 46.0272H299.193L328.722 35.009H446.678V33.2461H328.404L298.876 44.2643Z" fill="#15DDEC"/>
<path d="M299.915 4.6003H377.378C377.575 5.41538 378.04 6.14068 378.698 6.66007C379.357 7.17947 380.171 7.46292 381.009 7.46503C382.003 7.46503 382.956 7.07033 383.658 6.36778C384.361 5.66523 384.755 4.71239 384.755 3.71884C384.755 2.72529 384.361 1.77245 383.658 1.0699C382.956 0.367356 382.003 -0.0273438 381.009 -0.0273438C380.171 -0.0252361 379.357 0.258214 378.698 0.777608C378.04 1.297 377.575 2.0223 377.378 2.83739H298.152V21.7887H446.678V20.0258H299.915V4.6003Z" fill="#15DDEC"/>
<path d="M328.667 11.4585C328.47 10.6434 328.004 9.91804 327.346 9.39865C326.688 8.87925 325.874 8.59586 325.035 8.59375C324.042 8.59375 323.089 8.9884 322.386 9.69094C321.684 10.3935 321.289 11.3464 321.289 12.3399C321.289 13.3335 321.684 14.2863 322.386 14.9889C323.089 15.6914 324.042 16.0861 325.035 16.0861C325.874 16.084 326.688 15.8006 327.346 15.2812C328.004 14.7618 328.47 14.0365 328.667 13.2214H446.676V11.4585H328.667Z" fill="#15DDEC"/>
<path d="M137.871 24.0898C136.878 24.0922 135.927 24.4876 135.225 25.1897C134.523 25.8917 134.127 26.8432 134.125 27.836C134.125 28.8296 134.52 29.7824 135.222 30.485C135.925 31.1875 136.878 31.5822 137.871 31.5822C138.71 31.5817 139.525 31.2988 140.183 30.7791C140.842 30.2595 141.307 29.5333 141.503 28.7175H446.68V26.9546H141.503C141.305 26.1395 140.84 25.4142 140.182 24.8948C139.523 24.3754 138.71 24.092 137.871 24.0898Z" fill="#15DDEC"/>
<path d="M100.114 147.801L123.244 129.767H251.593V144.752H131.177C130.98 143.936 130.515 143.211 129.856 142.692C129.198 142.172 128.384 141.889 127.545 141.887C126.552 141.887 125.599 142.282 124.896 142.984C124.194 143.687 123.799 144.639 123.799 145.633C123.799 146.627 124.194 147.579 124.896 148.282C125.599 148.984 126.552 149.379 127.545 149.379C128.384 149.377 129.198 149.094 129.856 148.574C130.515 148.055 130.98 147.33 131.177 146.514H253.355V128.004H122.6L98.3516 146.964V158.3H446.676V156.537H100.114V147.801Z" fill="#11BFE1"/>
<path d="M78.8741 151.38H31.1786C30.9812 150.565 30.5161 149.84 29.8577 149.321C29.1993 148.801 28.3856 148.518 27.547 148.516C26.5534 148.516 25.6006 148.91 24.898 149.613C24.1955 150.315 23.8008 151.268 23.8008 152.262C23.8008 153.255 24.1955 154.208 24.898 154.911C25.6006 155.613 26.5534 156.008 27.547 156.008C28.386 156.007 29.2004 155.725 29.8592 155.205C30.5179 154.685 30.9827 153.959 31.1786 153.143H78.1689L91.3203 165.484H446.679V163.721H92.0166L78.8741 151.38Z" fill="#11BFE1"/>
<path d="M61.0431 167.027C60.0495 167.027 59.0967 167.422 58.3941 168.125C57.6916 168.827 57.2969 169.78 57.2969 170.774C57.2969 171.767 57.6916 172.72 58.3941 173.422C59.0967 174.125 60.0495 174.52 61.0431 174.52C61.8821 174.519 62.6965 174.236 63.3553 173.717C64.014 173.197 64.4788 172.471 64.6747 171.655H446.68V169.892H64.6747C64.4773 169.077 64.0122 168.352 63.3538 167.832C62.6954 167.313 61.8817 167.029 61.0431 167.027Z" fill="#11BFE1"/>
<path d="M286.651 129.123C286.454 128.307 285.989 127.582 285.33 127.063C284.672 126.543 283.858 126.26 283.02 126.258C282.026 126.258 281.073 126.652 280.371 127.355C279.668 128.058 279.273 129.01 279.273 130.004C279.273 130.998 279.668 131.95 280.371 132.653C281.073 133.355 282.026 133.75 283.02 133.75C283.859 133.75 284.673 133.467 285.332 132.947C285.991 132.427 286.455 131.701 286.651 130.885H446.679V129.123H286.651Z" fill="#11BFE1"/>
<path d="M360.26 147.633H311.331C311.134 146.818 310.668 146.093 310.01 145.573C309.352 145.054 308.538 144.771 307.699 144.768C306.706 144.768 305.753 145.163 305.05 145.866C304.348 146.568 303.953 147.521 303.953 148.515C303.953 149.508 304.348 150.461 305.05 151.164C305.753 151.866 306.706 152.261 307.699 152.261C308.538 152.26 309.353 151.977 310.012 151.458C310.67 150.938 311.135 150.212 311.331 149.396H360.622L383.099 139.841H446.678V138.078H382.738L360.26 147.633Z" fill="#11BFE1"/>
<path d="M289.746 194.997H163.839C163.641 194.182 163.176 193.457 162.518 192.937C161.859 192.418 161.046 192.134 160.207 192.132C159.214 192.132 158.261 192.527 157.558 193.23C156.856 193.932 156.461 194.885 156.461 195.878C156.461 196.872 156.856 197.825 157.558 198.527C158.261 199.23 159.214 199.625 160.207 199.625C161.046 199.623 161.859 199.339 162.518 198.82C163.176 198.3 163.641 197.575 163.839 196.76H290.398L311.773 178.54H446.68V176.777H311.121L289.746 194.997Z" fill="#11BFE1"/>
<path d="M317.395 200.53H385.531C385.728 201.345 386.193 202.07 386.852 202.59C387.51 203.109 388.324 203.393 389.163 203.395C390.156 203.395 391.109 203 391.812 202.297C392.514 201.595 392.909 200.642 392.909 199.648C392.909 198.655 392.514 197.702 391.812 196.999C391.109 196.297 390.156 195.902 389.163 195.902C388.324 195.904 387.51 196.188 386.852 196.707C386.193 197.227 385.728 197.952 385.531 198.767H319.157V183.853H446.678V182.09H317.395V200.53Z" fill="#11BFE1"/>
<path d="M446.678 271.681H82.9627C82.77 270.865 82.3074 270.138 81.6498 269.618C80.9922 269.098 80.1783 268.816 79.3399 268.816C78.3464 268.816 77.3935 269.211 76.691 269.914C75.9884 270.616 75.5938 271.569 75.5938 272.562C75.5938 273.556 75.9884 274.509 76.691 275.211C77.3935 275.914 78.3464 276.309 79.3399 276.309C80.1779 276.308 80.991 276.025 81.6483 275.505C82.3055 274.985 82.7686 274.259 82.9627 273.444H446.678V271.681Z" fill="#15DDEC"/>
<path d="M67.9699 259.905H115.569C115.766 260.72 116.231 261.445 116.889 261.965C117.548 262.484 118.361 262.768 119.2 262.77C120.194 262.77 121.147 262.375 121.849 261.672C122.552 260.97 122.946 260.017 122.946 259.024C122.946 258.03 122.552 257.077 121.849 256.375C121.147 255.672 120.194 255.277 119.2 255.277C118.361 255.279 117.548 255.563 116.889 256.082C116.231 256.602 115.766 257.327 115.569 258.142H66.207V287.027H446.678V285.264H67.9699V259.905Z" fill="#15DDEC"/>
<path d="M134.705 258.145L117.516 241.626H46.3036C46.1062 240.811 45.6411 240.086 44.9827 239.567C44.3243 239.047 43.5106 238.764 42.672 238.762C41.6784 238.762 40.7256 239.156 40.023 239.859C39.3205 240.561 38.9258 241.514 38.9258 242.508C38.9258 243.501 39.3205 244.454 40.023 245.157C40.7256 245.859 41.6784 246.254 42.672 246.254C43.5106 246.252 44.3243 245.969 44.9827 245.449C45.6411 244.93 46.1062 244.204 46.3036 243.389H116.82L134.008 259.908H449.323V258.145H134.705Z" fill="#15DDEC"/>
<path d="M111.125 294.512L92.4558 309.496H7.37778C7.18046 308.681 6.71535 307.956 6.05691 307.437C5.39848 306.917 4.58481 306.634 3.74619 306.632C2.75264 306.632 1.79978 307.026 1.09723 307.729C0.394686 308.431 0 309.384 0 310.378C0 311.371 0.394686 312.324 1.09723 313.027C1.79978 313.729 2.75264 314.124 3.74619 314.124C4.58481 314.122 5.39848 313.839 6.05691 313.319C6.71535 312.8 7.18046 312.074 7.37778 311.259H93.0817L111.751 296.275H446.704V294.512H111.125Z" fill="#15DDEC"/>
<path d="M116.852 302.004L91.3608 322.189H55.0096C54.8155 321.374 54.3524 320.648 53.6952 320.128C53.0379 319.609 52.2247 319.325 51.3868 319.324C50.3933 319.324 49.4404 319.719 48.7379 320.422C48.0353 321.124 47.6406 322.077 47.6406 323.071C47.6406 324.064 48.0353 325.017 48.7379 325.72C49.4404 326.422 50.3933 326.817 51.3868 326.817C52.2247 326.816 53.0379 326.533 53.6952 326.013C54.3524 325.493 54.8155 324.767 55.0096 323.952H91.969L117.461 303.767H446.675V302.004H116.852Z" fill="#15DDEC"/>
<path d="M446.68 354.009H64.6747C64.4773 353.194 64.0122 352.469 63.3538 351.949C62.6954 351.43 61.8817 351.147 61.0431 351.145C60.0495 351.145 59.0967 351.539 58.3941 352.242C57.6916 352.944 57.2969 353.897 57.2969 354.891C57.2969 355.884 57.6916 356.837 58.3941 357.54C59.0967 358.242 60.0495 358.637 61.0431 358.637C61.8817 358.635 62.6954 358.351 63.3538 357.832C64.0122 357.313 64.4773 356.587 64.6747 355.772H446.68V354.009Z" fill="#10C1E2"/>
<path d="M100.114 331.922L123.244 313.861H251.593V328.845H131.177C130.981 328.029 130.516 327.303 129.858 326.784C129.199 326.264 128.384 325.981 127.545 325.981C126.552 325.981 125.599 326.375 124.896 327.078C124.194 327.78 123.799 328.733 123.799 329.727C123.802 330.72 124.197 331.671 124.899 332.373C125.601 333.075 126.553 333.471 127.545 333.473C128.384 333.471 129.198 333.187 129.856 332.668C130.515 332.149 130.98 331.423 131.177 330.608H253.355V312.098H122.6L98.3516 331.058V342.402H446.676V340.639H100.114V331.922Z" fill="#15DDEC"/>
<path d="M78.8741 335.501H31.1786C30.9812 334.686 30.5161 333.961 29.8577 333.442C29.1993 332.922 28.3856 332.639 27.547 332.637C26.5534 332.637 25.6006 333.031 24.898 333.734C24.1955 334.437 23.8008 335.389 23.8008 336.383C23.8008 337.376 24.1955 338.329 24.898 339.032C25.6006 339.734 26.5534 340.129 27.547 340.129C28.3856 340.127 29.1993 339.844 29.8577 339.324C30.5161 338.805 30.9812 338.079 31.1786 337.264H78.1689L91.3203 349.605H446.679V347.842H92.0166L78.8741 335.501Z" fill="#15DDEC"/>
<path d="M286.651 313.244C286.454 312.429 285.989 311.703 285.33 311.184C284.672 310.664 283.858 310.381 283.02 310.379C282.026 310.379 281.073 310.774 280.371 311.476C279.668 312.179 279.273 313.132 279.273 314.125C279.273 315.119 279.668 316.072 280.371 316.774C281.073 317.477 282.026 317.871 283.02 317.871C283.858 317.869 284.672 317.586 285.33 317.066C285.989 316.547 286.454 315.822 286.651 315.007H446.679V313.244H286.651Z" fill="#15DDEC"/>
<path d="M360.26 331.751H311.331C311.134 330.936 310.668 330.211 310.01 329.692C309.352 329.172 308.538 328.889 307.699 328.887C306.706 328.887 305.753 329.281 305.05 329.984C304.348 330.686 303.953 331.639 303.953 332.633C303.953 333.626 304.348 334.579 305.05 335.282C305.753 335.984 306.706 336.379 307.699 336.379C308.538 336.377 309.352 336.093 310.01 335.574C310.668 335.055 311.134 334.329 311.331 333.514H360.622L383.099 323.95H446.678V322.188H382.738L360.26 331.751Z" fill="#15DDEC"/>
<path d="M265.063 237.88H172.651C172.454 237.065 171.989 236.34 171.33 235.821C170.672 235.301 169.858 235.018 169.02 235.016C168.026 235.016 167.073 235.41 166.371 236.113C165.668 236.815 165.273 237.768 165.273 238.762C165.273 239.755 165.668 240.708 166.371 241.411C167.073 242.113 168.026 242.508 169.02 242.508C169.858 242.506 170.672 242.222 171.33 241.703C171.989 241.184 172.454 240.458 172.651 239.643H264.534L282.789 251.649H446.74V249.886H283.283L265.063 237.88Z" fill="#15DDEC"/>
<path d="M307.047 238.635C306.703 238.132 306.242 237.72 305.703 237.435C305.163 237.151 304.563 237.003 303.953 237.004C302.96 237.004 302.007 237.399 301.304 238.102C300.602 238.804 300.207 239.757 300.207 240.751C300.207 241.744 300.602 242.697 301.304 243.4C302.007 244.102 302.96 244.497 303.953 244.497C304.947 244.497 305.9 244.102 306.602 243.4C307.305 242.697 307.699 241.744 307.699 240.751C307.694 240.597 307.679 240.444 307.655 240.292L334.452 230.173H446.678V228.41H334.125L307.047 238.635Z" fill="#15DDEC"/>
<path d="M298.876 228.409H215.843C215.647 227.593 215.182 226.867 214.523 226.347C213.865 225.828 213.05 225.545 212.211 225.544C211.217 225.544 210.265 225.939 209.562 226.641C208.86 227.344 208.465 228.297 208.465 229.29C208.465 230.284 208.86 231.237 209.562 231.939C210.265 232.642 211.217 233.036 212.211 233.036C213.05 233.034 213.863 232.751 214.522 232.232C215.18 231.712 215.645 230.987 215.843 230.172H299.193L328.722 219.154H446.678V217.391H328.404L298.876 228.409Z" fill="#15DDEC"/>
<path d="M141.503 211.076C141.305 210.261 140.84 209.535 140.182 209.016C139.523 208.496 138.71 208.213 137.871 208.211C136.878 208.211 135.925 208.606 135.222 209.308C134.52 210.011 134.125 210.964 134.125 211.957C134.125 212.951 134.52 213.904 135.222 214.606C135.925 215.309 136.878 215.703 137.871 215.703C138.71 215.701 139.523 215.418 140.182 214.898C140.84 214.379 141.305 213.654 141.503 212.839H446.68V211.076H141.503Z" fill="#15DDEC"/>
<path d="M311.121 360.922L289.746 379.142H163.839C163.643 378.326 163.178 377.6 162.519 377.08C161.861 376.56 161.046 376.277 160.207 376.277C159.214 376.277 158.261 376.672 157.558 377.374C156.856 378.077 156.461 379.029 156.461 380.023C156.461 381.017 156.856 381.969 157.558 382.672C158.261 383.375 159.214 383.769 160.207 383.769C161.046 383.767 161.859 383.484 162.518 382.964C163.176 382.445 163.641 381.72 163.839 380.904H290.398L311.773 362.685H446.68V360.922H311.121Z" fill="#10C1E2"/>
<path d="M317.395 384.651H385.531C385.728 385.466 386.193 386.191 386.852 386.711C387.51 387.23 388.324 387.514 389.163 387.516C390.155 387.513 391.107 387.118 391.809 386.416C392.511 385.714 392.906 384.762 392.909 383.77C392.909 382.776 392.514 381.823 391.812 381.121C391.109 380.418 390.156 380.023 389.163 380.023C388.324 380.024 387.509 380.307 386.85 380.826C386.192 381.346 385.727 382.072 385.531 382.888H319.157V367.974H446.678V366.211H317.395V384.651Z" fill="#10C1E2"/>
<path d="M92.0166 439.615L78.8741 427.275H31.1786C30.9812 426.46 30.5161 425.735 29.8577 425.215C29.1993 424.696 28.3856 424.412 27.547 424.41C26.5534 424.41 25.6006 424.805 24.898 425.507C24.1955 426.21 23.8008 427.163 23.8008 428.156C23.8008 429.15 24.1955 430.103 24.898 430.805C25.6006 431.508 26.5534 431.903 27.547 431.903C28.386 431.902 29.2004 431.619 29.8592 431.099C30.5179 430.58 30.9827 429.854 31.1786 429.038H78.1689L91.3203 441.378H446.679V439.615H92.0166Z" fill="#10C1E2"/>
<path d="M61.0431 442.922C60.0495 442.922 59.0967 443.317 58.3941 444.019C57.6916 444.722 57.2969 445.675 57.2969 446.668C57.2969 447.662 57.6916 448.614 58.3941 449.317C59.0967 450.02 60.0495 450.414 61.0431 450.414C61.8821 450.414 62.6965 450.131 63.3553 449.611C64.014 449.092 64.4788 448.365 64.6747 447.55H446.68V445.787H64.6747C64.4773 444.972 64.0122 444.246 63.3538 443.727C62.6954 443.207 61.8817 442.924 61.0431 442.922Z" fill="#10C1E2"/>
<path d="M116.852 393.781L91.3608 413.975H55.0096C54.8169 413.16 54.3542 412.433 53.6967 411.913C53.0391 411.393 52.2251 411.11 51.3868 411.111C50.3933 411.111 49.4404 411.505 48.7379 412.208C48.0353 412.91 47.6406 413.863 47.6406 414.857C47.6406 415.85 48.0353 416.803 48.7379 417.506C49.4404 418.208 50.3933 418.603 51.3868 418.603C52.2247 418.602 53.0379 418.319 53.6952 417.799C54.3524 417.279 54.8155 416.553 55.0096 415.738H91.969L117.461 395.544H446.675V393.781H116.852Z" fill="#10C1E2"/>
<path d="M100.114 423.696L123.244 405.661H251.593V420.646H131.177C130.98 419.831 130.515 419.106 129.856 418.586C129.198 418.067 128.384 417.783 127.545 417.781C126.552 417.781 125.599 418.176 124.896 418.879C124.194 419.581 123.799 420.534 123.799 421.528C123.799 422.521 124.194 423.474 124.896 424.177C125.599 424.879 126.552 425.274 127.545 425.274C128.384 425.272 129.198 424.988 129.856 424.469C130.515 423.949 130.98 423.224 131.177 422.409H253.355V403.898H122.6L98.3516 422.867V434.203H446.676V432.44H100.114V423.696Z" fill="#10C1E2"/>
<path d="M283.02 402.137C282.026 402.137 281.073 402.531 280.371 403.234C279.668 403.936 279.273 404.889 279.273 405.883C279.273 406.876 279.668 407.829 280.371 408.532C281.073 409.234 282.026 409.629 283.02 409.629C283.859 409.629 284.673 409.346 285.332 408.826C285.991 408.306 286.455 407.58 286.651 406.764H446.679V405.001H286.651C286.454 404.186 285.989 403.461 285.33 402.942C284.672 402.422 283.858 402.139 283.02 402.137Z" fill="#10C1E2"/>
<path d="M360.26 423.528H311.331C311.134 422.713 310.668 421.987 310.01 421.468C309.352 420.948 308.538 420.665 307.699 420.663C306.706 420.663 305.753 421.058 305.05 421.76C304.348 422.463 303.953 423.416 303.953 424.409C303.953 425.403 304.348 426.356 305.05 427.058C305.753 427.761 306.706 428.155 307.699 428.155C308.538 428.155 309.353 427.872 310.012 427.352C310.67 426.833 311.135 426.106 311.331 425.291H360.622L383.099 415.736H446.678V413.973H382.738L360.26 423.528Z" fill="#10C1E2"/>
<path d="M311.117 452.698L289.742 470.892H163.835C163.637 470.076 163.172 469.351 162.514 468.832C161.856 468.312 161.042 468.029 160.203 468.027C159.21 468.027 158.257 468.422 157.554 469.124C156.852 469.827 156.457 470.779 156.457 471.773C156.457 472.767 156.852 473.719 157.554 474.422C158.257 475.125 159.21 475.519 160.203 475.519C161.042 475.517 161.856 475.234 162.514 474.714C163.172 474.195 163.637 473.47 163.835 472.654H290.394L311.769 454.435H446.676V452.672L311.117 452.698Z" fill="#10C1E2"/>
<path d="M317.395 476.427H385.531C385.728 477.242 386.193 477.968 386.852 478.487C387.51 479.006 388.324 479.29 389.163 479.292C390.156 479.292 391.109 478.897 391.812 478.195C392.514 477.492 392.909 476.539 392.909 475.546C392.909 474.552 392.514 473.599 391.812 472.897C391.109 472.194 390.156 471.8 389.163 471.8C388.324 471.802 387.51 472.085 386.852 472.605C386.193 473.124 385.728 473.849 385.531 474.664H319.157V459.759H446.678V457.996H317.395V476.427Z" fill="#10C1E2"/>
<path d="M67.9699 561.159V535.8H115.569C115.766 536.615 116.231 537.34 116.889 537.859C117.548 538.379 118.361 538.662 119.2 538.664C120.194 538.664 121.147 538.27 121.849 537.567C122.552 536.864 122.946 535.912 122.946 534.918C122.946 533.924 122.552 532.972 121.849 532.269C121.147 531.567 120.194 531.172 119.2 531.172C118.361 531.174 117.548 531.457 116.889 531.977C116.231 532.496 115.766 533.222 115.569 534.037H66.207V562.922H446.678V561.159H67.9699Z" fill="#15DDEC"/>
<path d="M446.678 547.576H82.9627C82.77 546.76 82.3074 546.033 81.6498 545.513C80.9922 544.993 80.1783 544.71 79.3399 544.711C78.3464 544.711 77.3935 545.106 76.691 545.808C75.9884 546.511 75.5938 547.464 75.5938 548.457C75.5938 549.451 75.9884 550.404 76.691 551.106C77.3935 551.809 78.3464 552.203 79.3399 552.203C80.1779 552.202 80.991 551.919 81.6483 551.399C82.3055 550.88 82.7686 550.154 82.9627 549.339H446.678V547.576Z" fill="#15DDEC"/>
<path d="M134.705 534.039L117.516 517.521H46.3036C46.1062 516.706 45.6411 515.981 44.9827 515.461C44.3243 514.942 43.5106 514.658 42.672 514.656C41.6784 514.656 40.7256 515.051 40.023 515.753C39.3205 516.456 38.9258 517.409 38.9258 518.402C38.9258 519.396 39.3205 520.349 40.023 521.051C40.7256 521.754 41.6784 522.149 42.672 522.149C43.5106 522.147 44.3243 521.863 44.9827 521.344C45.6411 520.824 46.1062 520.099 46.3036 519.284H116.82L134.008 535.802H449.323V534.039H134.705Z" fill="#15DDEC"/>
<path d="M283.283 525.78L265.063 513.775H172.651C172.454 512.96 171.989 512.234 171.33 511.715C170.672 511.196 169.858 510.912 169.02 510.91C168.026 510.91 167.073 511.305 166.371 512.007C165.668 512.71 165.273 513.663 165.273 514.656C165.273 515.65 165.668 516.603 166.371 517.305C167.073 518.008 168.026 518.402 169.02 518.402C169.858 518.4 170.672 518.117 171.33 517.597C171.989 517.078 172.454 516.353 172.651 515.538H264.534L282.789 527.543H446.74V525.78H283.283Z" fill="#15DDEC"/>
<path d="M307.047 514.53C306.703 514.026 306.242 513.614 305.703 513.33C305.163 513.046 304.563 512.898 303.953 512.899C302.96 512.899 302.007 513.294 301.304 513.996C300.602 514.699 300.207 515.652 300.207 516.645C300.207 517.639 300.602 518.591 301.304 519.294C302.007 519.997 302.96 520.391 303.953 520.391C304.947 520.391 305.9 519.997 306.602 519.294C307.305 518.591 307.699 517.639 307.699 516.645C307.694 516.492 307.679 516.338 307.655 516.187L334.452 506.068H446.678V504.305H334.125L307.047 514.53Z" fill="#15DDEC"/>
<path d="M328.404 493.289L298.876 504.307H215.843C215.647 503.491 215.182 502.765 214.523 502.246C213.865 501.726 213.05 501.443 212.211 501.443C211.217 501.443 210.265 501.837 209.562 502.54C208.86 503.242 208.465 504.195 208.465 505.189C208.465 506.182 208.86 507.135 209.562 507.838C210.265 508.54 211.217 508.935 212.211 508.935C213.05 508.933 213.863 508.649 214.522 508.13C215.18 507.611 215.645 506.885 215.843 506.07H299.193L328.722 495.052H446.678V493.289H328.404Z" fill="#15DDEC"/>
<path d="M446.68 486.97H141.503C141.305 486.155 140.84 485.43 140.182 484.91C139.523 484.391 138.71 484.108 137.871 484.105C136.878 484.105 135.925 484.5 135.222 485.203C134.52 485.905 134.125 486.858 134.125 487.852C134.125 488.845 134.52 489.798 135.222 490.501C135.925 491.203 136.878 491.598 137.871 491.598C138.71 491.596 139.523 491.312 140.182 490.793C140.84 490.274 141.305 489.548 141.503 488.733H446.68V486.97Z" fill="#15DDEC"/>
<path d="M98.9096 565.559L86.2783 576.577H31.1786C30.9812 575.762 30.5161 575.036 29.8577 574.517C29.1993 573.998 28.3856 573.714 27.547 573.712C26.5534 573.712 25.6006 574.107 24.898 574.809C24.1955 575.512 23.8008 576.465 23.8008 577.458C23.8008 578.452 24.1955 579.405 24.898 580.107C25.6006 580.81 26.5534 581.204 27.547 581.204C28.3856 581.202 29.1993 580.919 29.8577 580.399C30.5161 579.88 30.9812 579.155 31.1786 578.34H86.9394L99.5707 567.322H446.679V565.559H98.9096Z" fill="#15DDEC"/>
<path d="M282.789 576.473L264.534 588.478H172.651C172.454 587.663 171.989 586.938 171.33 586.418C170.672 585.899 169.858 585.615 169.02 585.613C168.026 585.613 167.073 586.008 166.371 586.711C165.668 587.413 165.273 588.366 165.273 589.36C165.273 590.353 165.668 591.306 166.371 592.008C167.073 592.711 168.026 593.106 169.02 593.106C169.858 593.104 170.672 592.82 171.33 592.301C171.989 591.781 172.454 591.056 172.651 590.241H265.063L283.283 578.236H446.678V576.473H282.789Z" fill="#15DDEC"/>
<path d="M307.655 587.826C307.679 587.674 307.694 587.521 307.699 587.367C307.699 586.374 307.305 585.421 306.602 584.718C305.9 584.016 304.947 583.621 303.953 583.621C302.96 583.621 302.007 584.016 301.304 584.718C300.602 585.421 300.207 586.374 300.207 587.367C300.207 588.361 300.602 589.314 301.304 590.016C302.007 590.719 302.96 591.113 303.953 591.113C304.563 591.115 305.163 590.967 305.703 590.682C306.242 590.398 306.703 589.986 307.047 589.483L334.125 599.708H446.678V597.945H334.452L307.655 587.826Z" fill="#15DDEC"/>
<path d="M298.152 622.184V641.135H377.378C377.573 641.951 378.038 642.677 378.697 643.197C379.356 643.716 380.17 643.999 381.009 644C382.003 644 382.956 643.605 383.658 642.902C384.361 642.2 384.755 641.247 384.755 640.253C384.753 639.261 384.358 638.309 383.656 637.607C382.953 636.905 382.002 636.51 381.009 636.507C380.171 636.509 379.357 636.793 378.698 637.312C378.04 637.832 377.575 638.557 377.378 639.372H299.915V623.947H446.678V622.184H298.152Z" fill="#15DDEC"/>
<path d="M325.035 627.914C324.042 627.914 323.089 628.309 322.386 629.011C321.684 629.714 321.289 630.667 321.289 631.66C321.289 632.654 321.684 633.607 322.386 634.309C323.089 635.012 324.042 635.406 325.035 635.406C325.874 635.406 326.689 635.123 327.347 634.603C328.006 634.084 328.471 633.358 328.667 632.542H446.676V630.779H328.667C328.47 629.964 328.004 629.238 327.346 628.719C326.688 628.2 325.874 627.916 325.035 627.914Z" fill="#15DDEC"/>
<path d="M328.722 608.961L299.343 598.005L299.193 597.943H215.843C215.645 597.128 215.18 596.402 214.522 595.883C213.863 595.364 213.05 595.08 212.211 595.078C211.217 595.078 210.265 595.473 209.562 596.175C208.86 596.878 208.465 597.831 208.465 598.824C208.465 599.818 208.86 600.771 209.562 601.473C210.265 602.176 211.217 602.57 212.211 602.57C213.05 602.57 213.865 602.287 214.523 601.767C215.182 601.248 215.647 600.522 215.843 599.706H298.876L328.255 610.671L328.404 610.724H446.678V608.961H328.722Z" fill="#15DDEC"/>
<path d="M137.871 612.418C136.878 612.418 135.925 612.813 135.222 613.515C134.52 614.218 134.125 615.171 134.125 616.164C134.125 617.158 134.52 618.111 135.222 618.813C135.925 619.516 136.878 619.91 137.871 619.91C138.71 619.908 139.523 619.625 140.182 619.105C140.84 618.586 141.305 617.861 141.503 617.046H446.68V615.283H141.503C141.305 614.468 140.84 613.742 140.182 613.223C139.523 612.704 138.71 612.42 137.871 612.418Z" fill="#15DDEC"/>
</g>
<defs>
<clipPath id="clip0_36_280">
<rect width="333" height="644" fill="white"/>
</clipPath>
</defs>
</svg>
